<svg xmlns="http://www.w3.org/2000/svg" width="74.43" height="74.431" viewBox="0 0 210.058 210.062">
    <path d="m206.65 96.806-93.38-93.37A11.698 11.698 0 0 0 105.036 0c-3.066 0-6.057 1.263-8.24 3.436L3.41 96.806A11.676 11.676 0 0 0 0 105.046c.021 3.066 1.249 6.065 3.411 8.234l93.384 93.367c2.163 2.162 5.193 3.411 8.248 3.415a11.773 11.773 0 0 0 8.234-3.415l93.373-93.363c2.798-2.798 3.99-7.01 3.136-10.862-.5-2.219-1.728-3.866-3.136-5.616" style="fill:#fcd116;fill-opacity:1;fill-rule:nonzero;stroke:none"/>
    <path d="m204.343 110.973-93.37 93.366a8.444 8.444 0 0 1-5.93 2.456 8.436 8.436 0 0 1-5.927-2.456L5.708 110.97c-1.552-1.551-2.434-3.728-2.434-5.926.007-2.198.889-4.378 2.437-5.93L99.11 5.718a8.513 8.513 0 0 1 5.927-2.43c2.198 0 4.382.885 5.937 2.43l93.37 93.398a8.418 8.418 0 0 1 2.452 5.927 8.42 8.42 0 0 1-2.452 5.93" style="fill:#000;fill-opacity:1;fill-rule:evenodd;stroke:none"/>
    <path d="M201.126 107.749a3.878 3.878 0 0 0 1.122-2.706c0-.98-.413-2.021-1.122-2.72L107.742 8.946a3.897 3.897 0 0 0-2.699-1.11c-.988 0-2.021.412-2.723 1.11L8.932 102.323c-.705.71-1.097 1.718-1.097 2.717.007.998.392 1.993 1.104 2.705l93.38 93.391c.703.699 1.743 1.112 2.724 1.112.991 0 2.004-.413 2.706-1.112l93.377-93.387z" style="fill:#fcd116;fill-opacity:1;fill-rule:evenodd;stroke:none"/>
    <path d="M133.523 58.914h-3.63l-2.269 13.8-2.451-13.8h-2.91l-2.537 13.8-2.18-13.8h-3.634l4.085 25.887h3.267l2.459-13.54 2.448 13.54h3.175l4.177-25.887zM106.25 71.81c0 2.999-.177 4.54-.819 6.63-.635 2.176-1.633 3.178-3.175 3.178-1.633 0-2.635-1.002-3.27-3.179-.547-2.088-.818-3.725-.818-6.537 0-2.91.183-4.632.818-6.629.635-2.176 1.637-3.178 3.27-3.178 1.542 0 2.54 1.002 3.175 3.267.547 1.908.819 3.542.819 6.448m3.542 0c0-3.905-.364-6.357-1.454-8.9-1.266-3.179-3.087-4.452-6.082-4.452-2.995 0-4.812 1.273-6.173 4.36-1.094 2.455-1.457 5.087-1.457 8.992 0 3.997.363 6.442 1.457 8.993 1.27 3.08 3.086 4.459 6.173 4.459 2.907 0 4.816-1.38 6.082-4.46 1.09-2.451 1.454-4.995 1.454-8.992m-19.188 12.99v-3.454h-9.447V58.914H77.43V84.8h13.173zM168.628 106.81c0 2.096-1.175 3.274-3.355 3.274h-3.814v-6.54h3.814c1.997 0 3.355 1.27 3.355 3.267m3.637 18.983-3.718-12.711c2.452-.91 3.718-3.179 3.718-6.272 0-4.174-2.72-6.897-6.809-6.897h-7.722v25.88h3.725v-12.168h3.546l3.446 12.168h3.814zm-17.815 0v-3.63h-9.44v-8.538h5.355v-3.542h-5.356v-6.54h8.439v-3.63H141.28v25.88h13.169zm-20.81-12.803c0 1.993-.188 3.81-.36 5.444-.37 2-1.55 3.728-3.726 3.728h-3.087v-18.62h3.087c1.634 0 2.724.823 3.355 2.636.462 1.087.73 3.905.73 6.812m3.634-.187c0-1.997-.275-4.265-.635-6.173-.455-2.632-1.545-4.629-3.087-5.719-.91-.73-2-.998-4.177-.998h-6.628v25.88h7.172c1.453 0 2.723-.364 3.633-1.179 2.54-1.997 3.722-5.814 3.722-11.81m-16.997 12.988v-3.45h-9.444v-22.43h-3.718v25.88h13.162zm-17.635-7.715V99.914h-3.722v18.612c0 2.452-1.45 4.093-3.447 4.093-2.18 0-3.637-1.64-3.637-4.093V99.914h-3.722v18.164c0 2.085.272 3.175.999 4.54 1.27 2.177 3.813 3.645 6.36 3.645 2.449 0 4.9-1.56 6.17-3.645.73-1.365.999-2.455.999-4.54m-22.169-5.274c0 2.999-.183 4.551-.818 6.629-.635 2.184-1.637 3.185-3.179 3.185-1.637 0-2.635-1.001-3.27-3.185-.543-2.078-.815-3.718-.815-6.53 0-2.907.183-4.639.815-6.636.635-2.176 1.633-3.175 3.27-3.175 1.542 0 2.544.999 3.179 3.27.547 1.902.818 3.542.818 6.442m3.539 0c0-3.898-.36-6.35-1.454-8.893-1.27-3.182-3.083-4.452-6.082-4.452-2.998 0-4.812 1.27-6.177 4.356-1.09 2.452-1.453 5.091-1.453 8.99 0 3.996.363 6.452 1.453 8.992 1.274 3.086 3.09 4.466 6.177 4.466 2.907 0 4.812-1.38 6.082-4.466 1.094-2.445 1.454-4.996 1.454-8.993m-19.177 12.99v-25.88h-3.722v10.534h-7.084V99.914h-3.722v25.88h3.722V114.08h7.084v11.713h3.722zm-17.812-7.084c0-3.726-2.184-6.537-7.176-9.444-1.908-1.09-2.448-1.813-2.448-3.087 0-1.725 1.358-2.999 3.087-2.999 1.633 0 2.9 1.186 2.995 2.999h3.542c-.092-3.909-2.907-6.72-6.537-6.72-3.722 0-6.632 2.998-6.632 6.72 0 2.272 1.09 4.269 3.178 5.726 5.267 3.538 3.814 2.54 4.357 3.08 1.545 1.185 2.092 2.271 2.092 3.725 0 2.088-1.633 3.909-3.634 3.909-2.543 0-3.63-2.269-3.63-4.453h-3.633c0 4.266 2.723 8.097 7.263 8.097 3.994 0 7.176-3.376 7.176-7.553" style="fill:#000;fill-opacity:1;fill-rule:evenodd;stroke:none"/>
</svg>
