<?xml version="1.0" encoding="UTF-8" standalone="no"?>
<!-- Created with Inkscape (http://www.inkscape.org/) -->

<svg
   xmlns:dc="http://purl.org/dc/elements/1.1/"
   xmlns:cc="http://creativecommons.org/ns#"
   xmlns:rdf="http://www.w3.org/1999/02/22-rdf-syntax-ns#"
   xmlns:svg="http://www.w3.org/2000/svg"
   xmlns="http://www.w3.org/2000/svg"
   xmlns:sodipodi="http://sodipodi.sourceforge.net/DTD/sodipodi-0.dtd"
   xmlns:inkscape="http://www.inkscape.org/namespaces/inkscape"
   id="svg17624"
   version="1.1"
   inkscape:version="0.48.2 r9819"
   width="379.69739"
   height="379.69739"
   xml:space="preserve"
   sodipodi:docname="AJAX1.svg"><metadata
     id="metadata17630"><rdf:RDF><cc:Work
         rdf:about=""><dc:format>image/svg+xml</dc:format><dc:type
           rdf:resource="http://purl.org/dc/dcmitype/StillImage" /><dc:title /></cc:Work></rdf:RDF></metadata><defs
     id="defs17628"><inkscape:perspective
       sodipodi:type="inkscape:persp3d"
       inkscape:vp_x="0 : 0.5 : 1"
       inkscape:vp_y="0 : 1000 : 0"
       inkscape:vp_z="1 : 0.5 : 1"
       inkscape:persp3d-origin="0.5 : 0.33333333 : 1"
       id="perspective17632" /><clipPath
       clipPathUnits="userSpaceOnUse"
       id="clipPath17642"><path
         d="m -2,710 501,0 0,-711 -501,0 0,711 z"
         id="path17644"
         inkscape:connector-curvature="0" /></clipPath><clipPath
       clipPathUnits="userSpaceOnUse"
       id="clipPath17648"><path
         d="m 0,708.06 498,0 0,-708 -498,0 0,708 z"
         id="path17650"
         inkscape:connector-curvature="0" /></clipPath><clipPath
       clipPathUnits="userSpaceOnUse"
       id="clipPath17798"><path
         d="m -2,710 501,0 0,-711 -501,0 0,711 z"
         id="path17800"
         inkscape:connector-curvature="0" /></clipPath><clipPath
       clipPathUnits="userSpaceOnUse"
       id="clipPath17804"><path
         d="m 0,708.06 498,0 0,-708 -498,0 0,708 z"
         id="path17806"
         inkscape:connector-curvature="0" /></clipPath><clipPath
       id="Clip0"><path
         inkscape:connector-curvature="0"
         d="m 0,0 212.597,0 0,269.292 L 0,269.292 0,0 z"
         transform="translate(0.923828,0.879883)"
         id="path7" /></clipPath><clipPath
       id="Clip0-8"><path
         inkscape:connector-curvature="0"
         d="m 0,0 170.079,0 0,113.386 L 0,113.386 0,0 z"
         transform="translate(0.0986328,0.822266)"
         id="path7-8" /></clipPath><clipPath
       id="Clip0-1"><path
         inkscape:connector-curvature="0"
         d="m 0,0 287.009,0 0,159.449 L 0,159.449 0,0 z"
         transform="translate(0.396484,0.267578)"
         id="path7-7" /></clipPath><clipPath
       id="Clip0-9"><path
         inkscape:connector-curvature="0"
         d="m 0,0 170.079,0 0,170.079 L 0,170.079 0,0 z"
         transform="translate(0.460938,0.775391)"
         id="path7-4" /></clipPath><clipPath
       id="Clip0-4"><path
         inkscape:connector-curvature="0"
         d="m 0,0 340.157,0 0,226.771 L 0,226.771 0,0 z"
         transform="translate(0.921875,0.25293)"
         id="path7-5" /></clipPath><clipPath
       id="Clip0-5"><path
         inkscape:connector-curvature="0"
         d="m 0,0 255.119,0 0,170.079 L 0,170.079 0,0 z"
         transform="translate(0.147461,0.0595703)"
         id="path7-1" /></clipPath><clipPath
       id="Clip0-0"><path
         inkscape:connector-curvature="0"
         d="m 0,0 170.079,0 0,113.386 L 0,113.386 0,0 z"
         transform="translate(0.0673828,0.207031)"
         id="path7-9" /></clipPath></defs><sodipodi:namedview
     pagecolor="#ffffff"
     bordercolor="#666666"
     borderopacity="1"
     objecttolerance="10"
     gridtolerance="10"
     guidetolerance="10"
     inkscape:pageopacity="0"
     inkscape:pageshadow="2"
     inkscape:window-width="1280"
     inkscape:window-height="1004"
     id="namedview17626"
     showgrid="false"
     inkscape:zoom="0.7071068"
     inkscape:cx="-0.18178067"
     inkscape:cy="24.924134"
     inkscape:window-x="-8"
     inkscape:window-y="-8"
     inkscape:window-maximized="1"
     inkscape:current-layer="g17634"
     fit-margin-top="0"
     fit-margin-left="0"
     fit-margin-right="0"
     fit-margin-bottom="0"
     showguides="true"
     inkscape:guide-bbox="true" /><g
     id="g17634"
     inkscape:groupmode="layer"
     inkscape:label="GG1999P002"
     transform="matrix(1.25,0,0,-1.25,-1566.5474,-1492.5703)"><path
       d="m 1273.4082,-1194.0562 263.413,0 c 11.0914,0 20.1746,-9.0747 20.1746,-20.1703 l 0,-263.4173 c 0,-11.0913 -9.0832,-20.1703 -20.1746,-20.1703 l -263.413,0 c -11.0998,0 -20.1703,9.079 -20.1703,20.1703 l 0,263.4173 c 0,11.0956 9.0705,20.1703 20.1703,20.1703"
       style="fill:#000000;fill-opacity:1;fill-rule:evenodd;stroke:none"
       id="path3589"
       inkscape:connector-curvature="0" /><path
       d="m 1405.1075,-1484.9044 c -12.4329,14.8926 -31.114,23.98 -50.5588,23.98 l -5.0204,0 -6.9147,0 c -42.1971,0 -76.5976,34.4048 -76.5976,76.5934 0,26.0726 16.6476,45.2178 16.6476,72.1847 0,18.3436 -6.2313,37.3665 -16.9514,51.9004 l 55.1996,53.0438 c 11.3529,-9.5853 26.6378,-15.6604 41.7835,-15.6604 15.4031,0 31.0593,5.8051 42.4122,15.9008 11.3614,-10.0957 27.0261,-15.9008 42.4207,-15.9008 15.1457,0 30.4306,6.0751 41.792,15.6604 l 55.1996,-53.0438 c -10.737,-14.5339 -16.9683,-33.5568 -16.9683,-51.9004 0,-26.9669 16.6645,-46.1121 16.6645,-72.1847 0,-42.1886 -34.4132,-76.5934 -76.6018,-76.5934 l -6.9105,0 -5.0373,0 c -19.4363,0 -38.1174,-9.0874 -50.5589,-23.98"
       style="fill:#ffffff;fill-opacity:1;fill-rule:evenodd;stroke:none"
       id="path3593"
       inkscape:connector-curvature="0" /><path
       d="m 1355.1052,-1308.4885 -41.522,-54.6216 41.522,0 0,54.6216 z m 23.0687,-75.5556 0,-36.2484 -23.0687,0 0,36.2484 -72.286,0 0,13.7873 72.286,95.4643 23.0687,0 0,-88.3176 13.8421,0 0,-20.934 -13.8421,0 z"
       style="fill:#000000;fill-opacity:1;fill-rule:nonzero;stroke:none"
       id="path3755"
       inkscape:connector-curvature="0" /><path
       d="m 1481.6735,-1306.9567 c -4.607,7.6615 -10.2392,10.7202 -18.9342,11.2349 -11.256,0.5105 -18.4196,-5.1049 -23.5413,-17.8711 -3.586,-8.674 -5.6279,-21.9507 -5.6279,-34.2023 0,-15.3145 3.0713,-31.1436 8.695,-40.3365 4.607,-7.6531 10.7497,-11.2264 19.9637,-11.2264 10.7412,0 17.3986,5.6153 22.516,18.3815 3.0714,7.6531 5.628,21.9508 5.628,33.1814 0,16.3354 -3.0713,31.1394 -8.6993,40.8385 m 15.8629,-99.5482 c -8.1888,-11.2306 -19.9594,-16.3354 -35.3076,-16.3354 -20.4741,0 -33.2657,8.1635 -41.9692,26.0346 -6.1427,12.2558 -10.2308,31.6541 -10.2308,49.0105 0,23.9926 6.1385,45.4371 15.8587,59.2201 8.7077,11.2306 20.4741,16.3354 37.3665,16.3354 18.4195,0 31.2111,-8.1719 40.4251,-26.0345 6.1426,-12.7621 9.7202,-31.1437 9.7202,-49.521 0,-22.9759 -5.6237,-45.9476 -15.8629,-58.7097"
       style="fill:#000000;fill-opacity:1;fill-rule:nonzero;stroke:none"
       id="path3759"
       inkscape:connector-curvature="0" /></g></svg>