<svg xmlns="http://www.w3.org/2000/svg" width="90.084" height="90" viewBox="0 0 254.237 254">
    <path d="M250.843 118.775 135.24 3.392c-4.526-4.523-11.935-4.523-16.454 0L3.397 118.775c-4.53 4.523-4.53 11.924 0 16.454l115.39 115.379c4.52 4.523 11.928 4.523 16.454 0l115.602-115.38c4.526-4.53 4.526-11.93 0-16.453" style="fill:#fcd116;fill-opacity:1;fill-rule:nonzero;stroke:none"/>
    <path d="M248.652 120.971 133.043 5.591c-3.323-3.316-8.745-3.316-12.058 0L5.602 120.971c-3.323 3.316-3.323 8.742 0 12.058l115.383 115.383c3.313 3.316 8.735 3.316 12.058 0l115.609-115.383c3.316-3.316 3.316-8.742 0-12.058" style="fill:#000;fill-opacity:1;fill-rule:evenodd;stroke:none"/>
    <path d="M245.353 124.266 129.741 8.883a3.882 3.882 0 0 0-5.464 0L8.894 124.266a3.875 3.875 0 0 0 0 5.465l115.383 115.38a3.869 3.869 0 0 0 5.464 0l115.612-115.38c1.5-1.5 1.5-3.962 0-5.465" style="fill:#fcd116;fill-opacity:1;fill-rule:evenodd;stroke:none"/>
    <path d="m150.206 151.068.042 40.35h27.16l-.028-55.015c0-10.1-8.42-18.394-18.57-18.394h-34.484c-3.63 0-6.594-2.964-6.594-6.594l.014-22.122 14.524 4.332c2.011.56 3.5.793 5.045-.258a4.87 4.87 0 0 0 1.288-6.76l-34.026-50.302L70.5 86.608a4.874 4.874 0 0 0 1.28 6.759c1.482 1.009 3.02.825 4.844.36l14.767-4.435.021 36.777v-.074c0 10.097 8.15 18.39 18.253 18.468l33.934.01c3.63 0 6.607 2.963 6.607 6.594" style="fill:#000;fill-opacity:1;fill-rule:evenodd;stroke:none"/>
</svg>
