<svg xmlns="http://www.w3.org/2000/svg" width="73.833" height="74.383" viewBox="0 0 208.374 209.927">
    <path d="M205.063 96.734 112.388 3.38c-4.456-4.512-11.913-4.498-16.376 0L3.344 96.734c-4.448 4.484-4.47 11.988 0 16.475l92.668 93.36c4.452 4.462 11.935 4.49 16.376.006l92.675-93.366c4.801-4.83 4.01-11.543 0-16.475" style="fill:#fcd116;fill-opacity:1;fill-rule:nonzero;stroke:none"/>
    <path d="m202.995 111.12-92.678 93.36c-3.337 3.348-8.89 3.34-12.23 0L5.418 111.12c-3.32-3.361-3.341-8.942 0-12.304l92.667-93.37c3.32-3.32 8.915-3.334 12.231 0l92.678 93.37c3.313 3.348 3.327 8.964 0 12.305" style="fill:#000;fill-opacity:1;fill-rule:evenodd;stroke:none"/>
    <path d="M199.556 107.656c1.443-1.46 1.443-3.93 0-5.397L106.87 8.917c-1.454-1.439-3.895-1.474-5.334 0L8.865 102.26c-1.443 1.503-1.467 3.902 0 5.397l92.672 93.36c1.46 1.46 3.866 1.453 5.334 0l92.685-93.36" style="fill:#fcd116;fill-opacity:1;fill-rule:evenodd;stroke:none"/>
    <path d="M123.67 63.217c0 2.331-.533 5.305-1.171 6.896-1.062 2.653-2.442 3.817-4.675 3.817-1.908 0-3.175-.74-4.138-2.328-1.164-1.912-1.799-5.203-1.799-8.385 0-2.551.42-5.306 1.164-7.116 1.07-2.656 2.55-3.82 4.886-3.708 1.796.103 2.974.745 3.927 2.332 1.17 2.015 1.806 5.094 1.806 8.492m4.773 0c0-3.821-.744-7.649-2.011-10.302-1.916-3.71-4.568-5.408-8.393-5.408-3.5 0-5.94 1.062-7.743 3.398-2.021 2.864-3.295 7.316-3.295 12.312 0 3.608.854 7.64 2.124 10.184 1.802 3.719 4.455 5.437 8.7 5.437 3.192 0 5.63-1.083 7.334-3.419 2.113-2.653 3.284-7.426 3.284-12.202m-27.912 15.07v-30.25h-4.78v19.321L84.72 48.037h-4.777v30.25h4.777V57.801l11.567 20.486h4.244zM173.817 104.136v-4.24h-18.68v4.24h6.897v26.006h4.773v-26.006h7.01zM152.8 130.142v-4.879H138.8v-8.283h8.799v-4.886H138.8v-7.426h13.043v-4.773h-17.826v30.247h18.782zm-23.23 0v-4.455h-14.017V99.895h-4.776v30.247h18.792zm-23.249-26.006v-4.24H87.64v4.24h6.897v26.006h4.774v-26.006h7.01zm-23.138 15.176V99.895h-4.78v19.417c0 3.934-2.22 6.477-5.522 6.477-3.284 0-5.517-2.543-5.517-6.477V99.895h-4.777v19.417c0 2.339.54 4.466 1.38 6.265 1.598 2.978 5.207 5.112 8.914 5.112 3.722 0 7.331-2.134 8.919-5.112.853-1.799 1.383-3.926 1.383-6.265m-31.952-4.244c0 2.332-.522 5.31-1.164 6.897-1.058 2.66-2.444 3.824-4.67 3.824-1.916 0-3.183-.737-4.135-2.335-1.171-1.912-1.81-5.197-1.81-8.386 0-2.543.434-5.31 1.171-7.105 1.059-2.653 2.547-3.827 4.876-3.722 1.813.11 2.977.745 3.937 2.336 1.164 2.018 1.795 5.094 1.795 8.491m4.777 0c0-3.82-.737-7.637-2.01-10.294-1.91-3.715-4.562-5.415-8.386-5.415-3.507 0-5.948 1.065-7.747 3.397-2.018 2.868-3.292 7.327-3.292 12.312 0 3.61.847 7.645 2.12 10.195 1.807 3.712 4.46 5.426 8.703 5.426 3.186 0 5.624-1.076 7.324-3.411 2.124-2.653 3.288-7.433 3.288-12.21" style="fill:#000;fill-opacity:1;fill-rule:evenodd;stroke:none"/>
</svg>
