<svg id="D9-1" xmlns="http://www.w3.org/2000/svg" width="30in" height="30in" viewBox="0 0 2160 2160">
  <g>
    <rect width="2160" height="2160" rx="135" ry="135" style="fill:#fff"/>
    <path d="M2025,2.2536c35.4578,0,68.7932,13.8081,93.8657,38.8806,25.0725,25.0725,38.8806,58.4081,38.8806,93.8658v1890c0,35.4578-13.8081,68.7932-38.8806,93.8657s-58.408,38.8806-93.8657,38.8806H135c-35.4578,0-68.7933-13.8081-93.8658-38.8806-25.0725-25.0725-38.8806-58.408-38.8806-93.8657V135c0-35.4578,13.8081-68.7933,38.8806-93.8658C66.2067,16.0617,99.5422,2.2536,135,2.2536h1890ZM2025,0H135C60.4417,0,0,60.4417,0,135v1890c0,74.5583,60.4417,135,135,135h1890c74.5583,0,135-60.4417,135-135V135c0-74.5583-60.4417-135-135-135h0Z"/>
  </g>
  <rect x="54" y="54" width="2052" height="2052" rx="81" ry="81" style="fill:#003f87"/>
  <g>
    <path d="M1208.7913,180c-32.7431,1.6287-64.8857,5.3999-96.6857,13.7147-36.5996,9.5996-71.1423,24-103.1997,44.1423-26.4,16.5431-50.143,35.7431-72.5996,57.1715l-85.028,342.5148c-32.0574,129.428-52.1147,261.6851-57.6,394.9712-2.0578,52.0278-1.7144,104.1424.5996,156.2563,2.9147,68.1434,8.3147,136.2,16.8004,203.9148,2.7426,21.857,6.9426,43.5428,12.6857,64.7996l115.0276,427.4574c26.4864,17.3142,53.6573,33.1716,82.4577,46.4569,33.4284,15.4291,68.3989,27.514,104.3989,35.7427,30.0004,6.8573,60.086,10.8,90.6861,12.8577l-109.9718-480.086c-19.543-4.3712-38.2282-11.914-53.9996-24.5996-12.8569-10.3716-36-34.2004-36-52.8004v-640.0287c0-34.3705,20.9148-63.5992,47.6574-83.5707,16.3713-12.172,34.8853-19.7147,54.7706-23.9148l90.0004-494.9998Z" style="fill:#fff; fill-rule: evenodd"/>
    <path d="M1340.4082,1955.2087c9.4036-2.9928,16.0709-9.9166,21.2856-18.2092,4.0185-6.2404,6.0699-12.9935,5.9838-20.4308-.1704-6.1554-.9397-12.6523-2.3932-18.6362l-97.2836-403.9227c-2.9059-12.0533-3.0772-17.6957-14.8739-24.9618-7.2669-4.5315-16.5844-7.5234-24.9623-5.0442l-77.1937,22.4834,109.6786,486.0746,79.7587-17.3531Z" style="fill:#fff; fill-rule: evenodd"/>
    <path d="M1166.0092,675.3064l69.9756,14.9028c4.1109.5143,8.2223.9422,12.3332,1.2853,5.9957.5996,12.1628-.1714,17.3015-3.5979,9.2502-6.1662,13.1898-14.4746,15.3311-25.0091l84.8779-409.7467c1.3705-6.3383,1.7139-12.591-.6848-18.6719-2.3126-5.9097-5.5671-11.8194-9.678-16.702-6.0817-7.2801-15.1602-13.0186-24.4956-14.5602l-75.0295-12.419-89.9315,484.5188Z" style="fill:#fff; fill-rule: evenodd"/>
  </g>
</svg>