<?xml version="1.0" encoding="UTF-8" standalone="no"?>
<!-- Generator: Adobe Illustrator 12.0.1, SVG Export Plug-In  -->

<svg
   xmlns:dc="http://purl.org/dc/elements/1.1/"
   xmlns:cc="http://creativecommons.org/ns#"
   xmlns:rdf="http://www.w3.org/1999/02/22-rdf-syntax-ns#"
   xmlns:svg="http://www.w3.org/2000/svg"
   xmlns="http://www.w3.org/2000/svg"
   xmlns:sodipodi="http://sodipodi.sourceforge.net/DTD/sodipodi-0.dtd"
   xmlns:inkscape="http://www.inkscape.org/namespaces/inkscape"
   version="1.1"
   width="188.59375"
   height="282.15625"
   viewBox="-1 0 188.59375 282.15625"
   enable-background="new -1 0 289 288"
   xml:space="preserve"
   id="svg2"
   inkscape:version="0.48.2 r9819"
   sodipodi:docname="MUTCD R10-5.svg"><metadata
   id="metadata22"><rdf:RDF><cc:Work
       rdf:about=""><dc:format>image/svg+xml</dc:format><dc:type
         rdf:resource="http://purl.org/dc/dcmitype/StillImage" /><dc:title></dc:title></cc:Work></rdf:RDF></metadata><sodipodi:namedview
   pagecolor="#ffffff"
   bordercolor="#666666"
   borderopacity="1"
   objecttolerance="10"
   gridtolerance="10"
   guidetolerance="10"
   inkscape:pageopacity="0"
   inkscape:pageshadow="2"
   inkscape:window-width="1280"
   inkscape:window-height="1004"
   id="namedview20"
   showgrid="false"
   fit-margin-top="0"
   fit-margin-left="0"
   fit-margin-right="0"
   fit-margin-bottom="0"
   inkscape:zoom="1.638889"
   inkscape:cx="60.677105"
   inkscape:cy="123.64424"
   inkscape:window-x="-8"
   inkscape:window-y="-8"
   inkscape:window-maximized="1"
   inkscape:current-layer="svg2"
   showguides="true"
   inkscape:guide-bbox="true" />
<defs
   id="defs4">
</defs>







<path
   inkscape:connector-curvature="0"
   d="m 186.84687,269.70849 c 0,6.43125 -5.2625,11.69375 -11.69375,11.69375 l -163.715,0 c -6.4325,0 -11.69375,-5.2625 -11.69375,-11.69375 l 0,-257.26625 c 0,-6.4325 5.26125,-11.695 11.69375,-11.695 l 163.715,0 c 6.43125,0 11.69375,5.2625 11.69375,11.695 l 0,257.26625 z"
   style="fill:#ffffff;fill-opacity:1;fill-rule:nonzero;stroke:#000000;stroke-width:1.5;stroke-miterlimit:4;stroke-opacity:1;stroke-dasharray:none"
   id="path8398" /><path
   inkscape:connector-curvature="0"
   d="m 175.153,3.67126 -163.715,0 c -4.82375,0 -8.77,3.94625 -8.77,8.77 l 0,257.2675 c 0,4.82375 3.94625,8.77 8.77,8.77 l 163.715,0 c 4.82375,0 8.77,-3.94625 8.77,-8.77 l 0,-257.2675 c 0,-4.82375 -3.94625,-8.77 -8.77,-8.77 m 3.89875,266.0375 c 0,2.14375 -1.755,3.8975 -3.89875,3.8975 l -163.715,0 c -2.14375,0 -3.89875,-1.75375 -3.89875,-3.8975 l 0,-257.2675 c 0,-2.14375 1.755,-3.8975 3.89875,-3.8975 l 163.715,0 c 2.14375,0 3.89875,1.75375 3.89875,3.8975 l 0,257.2675 z"
   style="fill:#000000;fill-opacity:1;fill-rule:nonzero;stroke:none"
   id="path8406" /><path
   inkscape:connector-curvature="0"
   d="m 46.78325,71.603 c -6.69875,0 -11.60625,-3.985 -14.205,-9.87375 l 5.89,-2.195 c 1.61625,3.69625 4.62,5.775 8.315,5.775 3.58,0 6.005,-2.48375 6.005,-5.775 0,-5.19625 -6.005,-6.005 -11.08625,-8.02625 -2.31,-0.98125 -7.50625,-3.29125 -7.50625,-9.70125 0,-7.68 5.19625,-10.56625 12.18375,-10.56625 5.485,0 9.18125,3.175 11.08625,7.96875 l -5.485,1.61625 c -0.5775,-1.7325 -3.06125,-3.40625 -5.8325,-3.40625 -2.945,0 -6.17875,0.92375 -5.9475,4.50375 0.5775,7.2175 18.8825,2.4825 18.8825,17.785 0,7.1025 -5.3125,11.895 -12.3,11.895"
   style="fill:#000000;fill-opacity:1;fill-rule:nonzero;stroke:none"
   id="path8410" /><path
   inkscape:connector-curvature="0"
   d="m 77.27188,37.41863 0,33.49125 -6.17875,0 0,-33.49125 -8.8925,0 0,-5.485 24.07875,0 0,5.485 -9.0075,0 z"
   style="fill:#000000;fill-opacity:1;fill-rule:nonzero;stroke:none"
   id="path8414" /><path
   inkscape:connector-curvature="0"
   d="m 114.68912,67.2145 c -2.2525,2.945 -5.3125,4.38875 -9.4125,4.38875 -5.485,0 -8.835,-2.195 -11.2025,-6.9875 -1.61625,-3.29125 -2.77125,-8.4875 -2.77125,-13.1075 0,-6.4675 1.6175,-12.24125 4.2725,-15.88 2.2525,-3.06 5.48625,-4.38875 9.99,-4.38875 10.79875,0 13.39625,11.55 13.39625,20.26875 0,6.12125 -1.55875,12.24125 -4.2725,15.70625 m -9.12375,-29.68 c -3.46375,0 -5.08125,1.385 -6.4675,4.7925 -0.92375,2.31 -1.50125,5.89 -1.50125,9.18125 0,4.1 0.86625,8.315 2.3675,10.7975 1.2125,2.02125 2.83,3.00375 5.3125,3.00375 2.8875,0 4.6775,-1.5025 6.00625,-4.90875 0.8075,-2.07875 1.50125,-5.89 1.50125,-8.8925 0,-4.50375 -0.9825,-13.97375 -7.21875,-13.97375"
   style="fill:#000000;fill-opacity:1;fill-rule:nonzero;stroke:none"
   id="path8418" /><path
   inkscape:connector-curvature="0"
   d="m 141.30886,53.93339 -7.6225,0 0,16.97625 -6.17875,0 0,-38.97625 14.7825,0 c 9.06625,0 11.7225,7.3325 11.7225,10.91375 0,3.0025 -1.8475,11.08625 -12.70375,11.08625 m 1.27,-15.82125 -8.8925,0 0,9.5275 8.8925,0 c 3.06125,0 5.1975,-2.02125 5.1975,-4.7925 0,-2.31 -1.79,-4.735 -5.1975,-4.735"
   style="fill:#000000;fill-opacity:1;fill-rule:nonzero;stroke:none"
   id="path8422" /><path
   inkscape:connector-curvature="0"
   d="m 35.36275,113.78925 0,-10.18625 -8.52375,0 0,10.18625 -3.7075,0 0,-23.3875 3.7075,0 0,9.42375 8.52375,0 0,-9.42375 3.6725,0 0,23.3875 -3.6725,0 z"
   style="fill:#000000;fill-opacity:1;fill-rule:nonzero;stroke:none"
   id="path8426" /><path
   inkscape:connector-curvature="0"
   d="m 44.64812,113.78925 0,-23.3875 13.79,0 0,3.7075 -10.0825,0 0,5.71625 6.79125,0 0,3.7775 -6.79125,0 0,6.41 10.81,0 0,3.77625 -14.5175,0 z"
   style="fill:#000000;fill-opacity:1;fill-rule:nonzero;stroke:none"
   id="path8430" /><path
   inkscape:connector-curvature="0"
   d="m 75.03501,113.78925 -3.77625,-10.18625 -4.40125,0 0,10.18625 -3.7075,0 0,-23.3875 8.49,0 c 5.37,0 6.92875,4.29625 6.92875,6.54875 0,2.49375 -1.455,4.95375 -3.6025,5.925 l 4.0875,10.91375 -4.01875,0 z m -3.2575,-19.68 -4.92,0 0,5.71625 4.88625,0 c 1.80125,0 3.1525,-1.28125 3.1525,-2.875 0,-1.525 -1.31625,-2.84125 -3.11875,-2.84125"
   style="fill:#000000;fill-opacity:1;fill-rule:nonzero;stroke:none"
   id="path8434" /><path
   inkscape:connector-curvature="0"
   d="m 83.03851,113.78925 0,-23.3875 13.79,0 0,3.7075 -10.0825,0 0,5.71625 6.79125,0 0,3.7775 -6.79125,0 0,6.41 10.81,0 0,3.77625 -14.5175,0 z"
   style="fill:#000000;fill-opacity:1;fill-rule:nonzero;stroke:none"
   id="path8438" /><path
   inkscape:connector-curvature="0"
   d="m 139.8635,111.57174 c -1.35125,1.7675 -3.1875,2.63375 -5.6475,2.63375 -3.2925,0 -5.30125,-1.3175 -6.7225,-4.1925 -0.97,-1.975 -1.6625,-5.09375 -1.6625,-7.86625 0,-3.88 0.97,-7.345 2.56375,-9.5275 1.35125,-1.83625 3.29125,-2.63375 5.99375,-2.63375 6.48,0 8.03875,6.93 8.03875,12.16125 0,3.67375 -0.935,7.34625 -2.56375,9.425 m -5.475,-17.81 c -2.07875,0 -3.04875,0.8325 -3.88,2.87625 -0.555,1.38625 -0.90125,3.53375 -0.90125,5.50875 0,2.46 0.52,4.99 1.42125,6.48 0.7275,1.2125 1.6975,1.80125 3.1875,1.80125 1.7325,0 2.80625,-0.9 3.60375,-2.945 0.485,-1.2475 0.9,-3.53375 0.9,-5.33625 0,-2.7025 -0.58875,-8.385 -4.33125,-8.385"
   style="fill:#000000;fill-opacity:1;fill-rule:nonzero;stroke:none"
   id="path8442" /><path
   inkscape:connector-curvature="0"
   d="m 160.20213,113.78925 -8.94,-15.835 0,15.835 -3.70625,0 0,-23.3875 3.70625,0 8.52375,14.93375 0,-14.93375 3.67375,0 0,23.3875 -3.2575,0 z"
   style="fill:#000000;fill-opacity:1;fill-rule:nonzero;stroke:none"
   id="path8446" /><path
   inkscape:connector-curvature="0"
   d="m 67.8595,172.25762 -6.29375,-16.97625 -7.33375,0 0,16.97625 -6.17875,0 0,-38.9775 14.1475,0 c 8.95,0 11.54875,7.16125 11.54875,10.91375 0,4.1575 -2.425,8.2575 -6.005,9.87375 l 6.81375,18.19 -6.69875,0 z m -5.4275,-32.79875 -8.2,0 0,9.5275 8.14125,0 c 3.00375,0 5.255,-2.13625 5.255,-4.7925 0,-2.54 -2.19375,-4.735 -5.19625,-4.735"
   style="fill:#000000;fill-opacity:1;fill-rule:nonzero;stroke:none"
   id="path8450" /><path
   inkscape:connector-curvature="0"
   d="m 81.198,172.25762 0,-38.9775 22.9825,0 0,6.17875 -16.80375,0 0,9.5275 11.3175,0 0,6.295 -11.3175,0 0,10.6825 18.01625,0 0,6.29375 -24.195,0 z"
   style="fill:#000000;fill-opacity:1;fill-rule:nonzero;stroke:none"
   id="path8454" /><path
   inkscape:connector-curvature="0"
   d="m 125.77612,172.25762 -13.7425,0 0,-38.9775 12.5875,0 c 3.985,0 5.48625,0.3475 7.50625,2.02125 4.15875,3.5225 6.41,9.75875 6.41,17.38125 0,11.54875 -5.9475,19.575 -12.76125,19.575 m -0.635,-32.79875 -6.93,0 0,26.505 6.815,0 c 5.6,0 7.275,-7.91125 7.275,-13.28125 0,-4.50375 -0.92375,-13.22375 -7.16,-13.22375"
   style="fill:#000000;fill-opacity:1;fill-rule:nonzero;stroke:none"
   id="path8458" /><path
   inkscape:connector-curvature="0"
   d="m 137.69625,182.375 -63.295,36.54375 -3.05,-12.2025 c -0.0863,-0.34 -0.22,-0.675 -0.405,-0.99375 -1.07625,-1.865 -3.46,-2.50375 -5.32375,-1.4275 -0.7,0.40375 -1.22625,0.99125 -1.555,1.66625 l -19.99625,42.2825 46.61625,3.825 c 0.74875,0.0525 1.52125,-0.10875 2.22,-0.5125 1.865,-1.0775 2.50375,-3.46125 1.4275,-5.325 -0.185,-0.32 -0.4075,-0.6025 -0.65875,-0.8475 l -9.04375,-8.7425 63.29625,-36.54375 -10.2325,-17.7225 z"
   style="fill:#000000;fill-opacity:1;fill-rule:nonzero;stroke:none"
   id="path8462" /></svg>