<?xml version="1.0" encoding="utf-8"?>
<!-- Generator: Adobe Illustrator 27.7.0, SVG Export Plug-In . SVG Version: 6.00 Build 0)  -->
<svg version="1.1" id="For_Sheets" xmlns="http://www.w3.org/2000/svg" xmlns:xlink="http://www.w3.org/1999/xlink" x="0px" y="0px"
	 viewBox="0 0 216.5 259.7" style="enable-background:new 0 0 216.5 259.7;" xml:space="preserve">
<style type="text/css">
	.st0{fill:#FFFFFF;}
	.st1{fill-rule:evenodd;clip-rule:evenodd;}
</style>
<g>
	<g>
		<path class="st0" d="M13.7,259.6c-7.5,0-13.6-6.1-13.6-13.6V13.7c0-7.5,6.1-13.6,13.6-13.6h189c7.5,0,13.6,6.1,13.6,13.6v232.2
			c0,7.5-6.1,13.6-13.6,13.6H13.7z"/>
		<path d="M202.8,0.2c7.4,0,13.5,6.1,13.5,13.5v232.2c0,7.4-6.1,13.5-13.5,13.5h-189c-7.4,0-13.5-6.1-13.5-13.5V13.8
			c0-7.4,6.1-13.5,13.5-13.5H202.8 M202.8,0h-189C6.2,0,0,6.2,0,13.8v232.2c0,7.6,6.2,13.8,13.8,13.8h189c7.6,0,13.8-6.2,13.8-13.8
			V13.8C216.5,6.2,210.3,0,202.8,0L202.8,0z"/>
	</g>
	<path d="M13.8,255.8c-5.5,0-9.9-4.4-9.9-9.9V13.7c0-5.5,4.4-9.9,9.9-9.9h189c5.5,0,9.9,4.4,9.9,9.9v232.2c0,5.5-4.4,9.9-9.9,9.9
		H13.8z M202.8,250.4c2.5,0,4.5-2,4.5-4.5V13.7c0-2.5-2-4.5-4.5-4.5h-189c-2.5,0-4.5,2-4.5,4.5v232.2c0,2.5,2,4.5,4.5,4.5H202.8z"/>
	<path class="st1" d="M129.5,48.5L113,53.7c-36,11-59.2,44.2-59.3,79.8v37.8h27l0-37.8c0.1-24.1,15.8-46.6,40.1-54l16.6-5.1
		L129.5,48.5z"/>
	<g>
		<path d="M82,203.2v29.3h-6.8v-43.2H82l15.8,27.6v-27.6h6.8v43.2h-6.1L82,203.2z"/>
		<path d="M115,189.3h6.8v36.8h20v6.4H115V189.3z"/>
		<path d="M166.4,232.4h-6.9v-18.8l-15.2-24.4h8.2l10.4,16.7l10.5-16.7h8.1l-15.1,24.4V232.4z"/>
		<path d="M65.7,210.8c0,1.5,0.3,22.4-15.3,22.4S35,212.4,35,210.8c0-1.5-0.3-22.4,15.3-22.4S65.7,209.3,65.7,210.8z M50.4,226.2
			c4.7,0,8.4-4.4,8.4-15.4c0-11-3.8-15.4-8.4-15.4c-4.7,0-8.4,4.4-8.4,15.4C42,221.8,45.8,226.2,50.4,226.2z"/>
	</g>
	<g>
		<path d="M126.8,93.5l2-30.6L110,38.7c-3.3-4.2,0.8-10.1,5.9-8.5l58.9,18.6l-38.4,48.4C133.1,101.4,126.4,98.8,126.8,93.5z"/>
	</g>
</g>
</svg>
