<?xml version="1.0" encoding="utf-8"?>
<!-- Generator: Adobe Illustrator 27.7.0, SVG Export Plug-In . SVG Version: 6.00 Build 0)  -->
<svg version="1.1" id="For_Sheets" xmlns="http://www.w3.org/2000/svg" xmlns:xlink="http://www.w3.org/1999/xlink" x="0px" y="0px"
	 viewBox="0 0 173.3 216.5" style="enable-background:new 0 0 173.3 216.5;" xml:space="preserve">
<style type="text/css">
	.st0{fill:#FFFFFF;}
</style>
<g>
	<g>
		<path class="st0" d="M11.1,216.4c-6,0-10.9-4.9-10.9-10.9V11C0.1,5,5,0.1,11.1,0.1h151.2c6,0,10.9,4.9,10.9,10.9v194.4
			c0,6-4.9,10.9-10.9,10.9H11.1z"/>
		<path d="M162.2,0.2c5.9,0,10.8,4.9,10.8,10.8v194.4c0,5.9-4.9,10.8-10.8,10.8H11c-5.9,0-10.8-4.9-10.8-10.8V11.1
			C0.2,5.1,5.1,0.2,11,0.2H162.2 M162.2,0H11C5,0,0,5,0,11.1v194.4c0,6.1,5,11,11,11h151.2c6.1,0,11-5,11-11V11.1
			C173.3,5,168.3,0,162.2,0L162.2,0z"/>
	</g>
	<path d="M11,213.6c-4.5,0-8.1-3.6-8.1-8.1V11.1C2.9,6.6,6.6,3,11,3h151.2c4.5,0,8.1,3.6,8.1,8.1v194.4c0,4.5-3.6,8.1-8.1,8.1H11z"
		/>
	<path class="st0" d="M11,209.1c-2,0-3.6-1.6-3.6-3.6V11.1c0-2,1.6-3.6,3.6-3.6h151.2c2,0,3.6,1.6,3.6,3.6v194.4
		c0,2-1.6,3.6-3.6,3.6H11z"/>
	<g>
		<path d="M35.6,49.7v18.9h-6.2V25.5h12.9c6.8,0,11.3,4.9,11.3,12.1c0,7.9-4.1,12.1-11.3,12.1H35.6z M35.6,43.8h6.4
			c3.6,0,5.6-2.3,5.6-6.2c0-3.6-2.3-6.1-5.6-6.1h-6.4V43.8z"/>
		<path d="M77.2,56.8h-9.3L65,68.6h-6.2l10.8-43.2h6.1l10.8,43.2h-6.2L77.2,56.8z M69.4,50.8h6.2l-3.2-12.4L69.4,50.8z"/>
		<path d="M102.7,41.2c4.7,3,11.8,7.1,11.8,15.6c0,7-5.3,12.6-12,12.6c-7.6,0-12.2-6.4-12.2-13.5h6.1c0,3.7,1.8,7.4,6.1,7.4
			c3.3,0,6.1-3,6.1-6.5c0-9.4-16.1-8.9-16.1-20.9c0-6.2,4.9-11.2,11.1-11.2c6.1,0,10.8,4.7,11,11.2h-5.9c-0.2-3-2.3-5-5-5
			c-2.9,0-5.2,2.1-5.2,5C98.4,38.7,99.9,39.4,102.7,41.2z"/>
		<path d="M132.1,41.2c4.7,3,11.8,7.1,11.8,15.6c0,7-5.3,12.6-12,12.6c-7.6,0-12.2-6.4-12.2-13.5h6.1c0,3.7,1.8,7.4,6.1,7.4
			c3.3,0,6.1-3,6.1-6.5c0-9.4-16.1-8.9-16.1-20.9c0-6.2,4.9-11.2,11.1-11.2c6.1,0,10.8,4.7,11,11.2H138c-0.2-3-2.3-5-5-5
			c-2.9,0-5.2,2.1-5.2,5C127.8,38.7,129.3,39.4,132.1,41.2z"/>
	</g>
	<g>
		<path d="M55.5,129.8l-4.1-22.6l-4.1,22.6h-5.5L35,86.7h6.1l3.7,23l4.3-23h4.9l4.1,23l3.8-23h6.1l-7,43.2H55.5z"/>
		<path d="M73.9,86.7h6v43.2h-6V86.7z"/>
		<path d="M100.1,129.8h-6.2V92.4H86v-5.8h22v5.8h-7.9V129.8z"/>
		<path d="M132.1,110.3h-11.8v19.6h-6.2V86.7h6.2v17.6h11.8V86.7h6.2v43.2h-6.2V110.3z"/>
	</g>
	<g>
		<path d="M46.3,159.4c-0.6-4.2-2.3-6.2-5.2-6.2c-5,0-6.9,3.9-6.9,15.2c0,12.4,2.1,17.4,7.5,17.4c3.7,0,4.6-3,4.6-6.2h6.2
			c-0.2,7.1-4.7,12.3-10.8,12.3c-9.3,0-13.4-7.4-13.4-23.3c0-13.9,4.4-21.4,12.9-21.4c7.9,0,11.1,7.2,11.3,12.3H46.3z"/>
		<path d="M76.1,179.2h-9.3L63.9,191h-6.2l10.8-43.2h6.1L85.4,191h-6.2L76.1,179.2z M68.3,173.2h6.2l-3.2-12.4L68.3,173.2z"/>
		<path d="M103.5,170.7h-5.9V191h-6.2v-43.2h12.9c6.8,0,11.3,4.5,11.3,11.5c0,5.2-2.1,8.9-6.2,10.5l6.2,21.2h-6.3L103.5,170.7z
			 M97.6,153.9v10.9h6.4c3.6,0,5.6-2,5.6-5.5c0-3.3-2.3-5.5-5.6-5.5H97.6z"/>
		<path d="M122.9,147.9h20.4v6.1h-14.1v10.9h9v5.9h-9V185H145v6.1h-22V147.9z"/>
	</g>
</g>
</svg>
