<svg xmlns="http://www.w3.org/2000/svg" width="90" height="89.992" viewBox="0 0 254 253.978">
    <path d="m135.227 250.564 115.34-115.337c2.167-2.166 3.433-5.165 3.433-8.234 0-3.076-1.266-6.068-3.432-8.244L135.227 3.41a11.652 11.652 0 0 0-16.475 0L3.404 118.75C1.245 120.91 0 123.938 0 126.993c0 3.051 1.245 6.075 3.404 8.234l115.348 115.337c2.794 2.798 7 3.997 10.852 3.143 2.268-.518 3.845-1.704 5.623-3.143" style="fill:#fcd116;fill-opacity:1;fill-rule:nonzero;stroke:none"/>
    <path d="M120.82 248.518 5.456 133.156c-1.605-1.605-2.533-3.884-2.533-6.163 0-2.272.928-4.583 2.533-6.188L120.82 5.457a8.756 8.756 0 0 1 6.16-2.53c2.31 0 4.568.91 6.198 2.53l115.337 115.348a8.84 8.84 0 0 1 2.554 6.188 8.788 8.788 0 0 1-2.554 6.163L133.177 248.518c-1.616 1.605-3.923 2.529-6.198 2.529-2.269 0-4.547-.924-6.16-2.53" style="fill:#000;fill-opacity:1;fill-rule:evenodd;stroke:none"/>
    <path d="M124.244 245.073a4.034 4.034 0 0 0 2.745 1.129c1.005 0 2.032-.42 2.737-1.129l115.359-115.34c.73-.72 1.114-1.726 1.114-2.738 0-1.027-.384-2.022-1.114-2.745L129.726 8.913a3.902 3.902 0 0 0-2.737-1.136 3.962 3.962 0 0 0-2.745 1.136L8.91 124.25a3.937 3.937 0 0 0-1.139 2.745 3.832 3.832 0 0 0 1.14 2.737l115.333 115.341z" style="fill:#fcd116;fill-opacity:1;fill-rule:evenodd;stroke:none"/>
    <path d="m211.442 152.008-15.1 15.128-30.045-30.043c-4.272-4.28-7.525-9.567-9.275-15.363a36.863 36.863 0 0 1-1.552-10.605v-10.181l-12.4 3.764c-.31.092-.614.11-.924.141-.932.102-1.8-.176-2.583-.688a4.051 4.051 0 0 1-1.739-2.61c-.219-1.207.014-2.28.727-3.25l27.58-37.757 27.534 37.758c.522.72.812 1.527.805 2.416-.022 2.078-1.351 3.651-3.376 4.085-.607.13-1.344.088-1.951-.095l-12.333-3.764v10.075c0 2.314.483 4.629 1.51 6.71.649 1.302 1.432 2.596 2.465 3.63l30.657 30.65zM99.163 101.06v91.455H77.84V101.06l-12.393 3.767a3.39 3.39 0 0 1-.92.145c-.89.021-1.779-.145-2.53-.646a4.301 4.301 0 0 1-1.803-2.691c-.222-1.14.06-2.283.744-3.214l27.573-37.769 27.52 37.769c.396.55.667 1.118.79 1.781.198 1.052-.06 2.082-.659 2.964-.585.875-1.489 1.53-2.53 1.718-.68.12-1.453.148-2.13-.057l-12.34-3.767zM179.113 184.771l-5.588 5.595-26.892-26.87c-1.358-1.366-2.723-2.731-4.089-4.1a14.7 14.7 0 0 1-.398-.416c-2.378-2.561-4.52-5.352-6.463-8.245-1.669-2.49-3.087-5.073-4.491-7.711v77.032h-7.768V111.457h7.697c.124 2.42.29 4.833.498 7.246.11 1.2.254 2.395.44 3.584 1.193 7.469 4.001 14.725 7.868 21.213 1.57 2.625 3.383 5.126 5.485 7.352a323.31 323.31 0 0 0 6.675 6.882l27.026 27.037zM123.423 29.615h7.768v15.501h-7.768V29.615zM123.423 56.779h7.768v15.505h-7.768V56.779zM123.423 83.918h7.768v15.505h-7.768V83.918z" style="fill:#000;fill-opacity:1;fill-rule:evenodd;stroke:none"/>
</svg>
