<svg xmlns="http://www.w3.org/2000/svg" width="74.43" height="74.431" viewBox="0 0 210.058 210.062">
    <path d="m206.65 96.806-93.38-93.37A11.698 11.698 0 0 0 105.036 0c-3.066 0-6.057 1.263-8.24 3.436L3.41 96.806A11.676 11.676 0 0 0 0 105.046c.021 3.066 1.249 6.065 3.411 8.234l93.384 93.367c2.163 2.162 5.193 3.411 8.248 3.415a11.773 11.773 0 0 0 8.234-3.415l93.373-93.363c2.798-2.798 3.99-7.01 3.136-10.862-.5-2.219-1.728-3.866-3.136-5.616" style="fill:#fcd116;fill-opacity:1;fill-rule:nonzero;stroke:none"/>
    <path d="m204.343 110.973-93.37 93.366a8.444 8.444 0 0 1-5.93 2.456 8.436 8.436 0 0 1-5.927-2.456L5.708 110.97c-1.552-1.551-2.434-3.728-2.434-5.926.007-2.198.889-4.378 2.437-5.93L99.11 5.718a8.513 8.513 0 0 1 5.927-2.43c2.198 0 4.382.885 5.937 2.43l93.37 93.398a8.418 8.418 0 0 1 2.452 5.927 8.42 8.42 0 0 1-2.452 5.93" style="fill:#000;fill-opacity:1;fill-rule:evenodd;stroke:none"/>
    <path d="M201.126 107.749a3.878 3.878 0 0 0 1.122-2.706c0-.98-.413-2.021-1.122-2.72L107.742 8.946a3.897 3.897 0 0 0-2.699-1.11c-.988 0-2.021.412-2.723 1.11L8.932 102.323c-.705.71-1.097 1.718-1.097 2.717.007.998.392 1.993 1.104 2.705l93.38 93.391c.703.699 1.743 1.112 2.724 1.112.991 0 2.004-.413 2.706-1.112l93.377-93.387z" style="fill:#fcd116;fill-opacity:1;fill-rule:evenodd;stroke:none"/>
    <path d="M176.625 95.18c0 1.813-1.062 3.781-2.578 4.54-1.21.606-1.962.758-4.079.758h-8.935V89.884h8.935c2.117 0 2.868.152 4.079.755 1.516.907 2.578 2.724 2.578 4.54m6.957 0c0-4.388-2.872-8.932-6.653-10.745-2.124-1.059-4.389-1.362-7.878-1.362h-14.827v43.134h6.809v-18.768h8.018c3.337 0 5.906-.606 7.878-1.513 3.781-1.665 6.653-6.205 6.653-10.746m-40.16 31.027V83.072h-6.809l-9.99 24.211-9.984-24.21h-6.816v43.133h6.816v-24.973l9.984 24.973 9.99-24.973v24.973h6.809zm-44.242-15.44V83.071h-6.823v27.693c0 5.602-3.182 9.232-7.874 9.232s-7.863-3.63-7.863-9.232V83.072h-6.816v27.693c0 3.33.752 6.354 1.965 8.932 2.276 4.237 7.423 7.289 12.714 7.289 5.299 0 10.446-3.052 12.718-7.289a20.93 20.93 0 0 0 1.979-8.932m-43.96 3.482c0 3.33-1.82 4.992-5.298 4.992H39.628v-11.8h8.632c1.51 0 1.972 0 2.872.3 2.42.906 4.088 3.636 4.088 6.508m-.91-19.974c0 1.968-.91 3.782-2.427 4.992-1.203.91-2.113 1.213-4.078 1.213h-8.177V89.884h9.99c3.024 0 4.692 1.51 4.692 4.389m7.874 19.822c0-4.692-2.575-8.322-7.115-10.442 4.085-2.268 6.05-5.447 6.05-9.684 0-6.205-5.14-10.897-11.956-10.897H32.82v43.134h16.344c1.969 0 4.547-.455 6.057-1.062 4.086-1.668 6.964-6.357 6.964-11.049" style="fill:#000;fill-opacity:1;fill-rule:evenodd;stroke:none"/>
</svg>
