<svg xmlns="http://www.w3.org/2000/svg" width="89.999" height="90" viewBox="0 0 253.996 254">
    <path d="M250.604 118.775 135.225 3.392c-4.526-4.523-11.924-4.523-16.45 0L3.392 118.775c-4.523 4.523-4.523 11.924 0 16.454l115.383 115.379c4.526 4.523 11.924 4.523 16.45 0l115.38-115.38c4.522-4.53 4.522-11.93 0-16.453" style="fill:#fcd116;fill-opacity:1;fill-rule:nonzero;stroke:none"/>
    <path d="M248.407 120.971 133.027 5.591c-3.312-3.316-8.738-3.316-12.058 0L5.59 120.972c-3.315 3.316-3.315 8.742 0 12.058l115.38 115.383c3.32 3.316 8.746 3.316 12.058 0l115.38-115.383c3.316-3.316 3.316-8.742 0-12.058" style="fill:#000;fill-opacity:1;fill-rule:evenodd;stroke:none"/>
    <path d="M245.108 124.266 129.736 8.883a3.886 3.886 0 0 0-5.468 0L8.888 124.266a3.875 3.875 0 0 0 0 5.465l115.38 115.38a3.873 3.873 0 0 0 5.468 0l115.372-115.38a3.862 3.862 0 0 0 0-5.465" style="fill:#fcd116;fill-opacity:1;fill-rule:evenodd;stroke:none"/>
    <path d="M118.567 114.432c-1.207 4-2.41 8.001-3.613 11.998-.472 1.57-.825 3.327-1.658 4.76-1.806 3.107-6.16 3.679-8.674 1.054-1.39-1.45-2.145-3.58-3.013-5.352-1.785-3.62-3.57-7.239-5.352-10.858-7.376-14.961-14.753-29.92-22.126-44.88 16.693 0 33.394 0 50.09-.01h11.914c2.096 0 4.46-.223 6.505.313 3.405.897 5.652 4.752 3.302 7.913-1.09 1.464-2.564 2.794-3.799 4.156-2.805 3.1-5.606 6.202-8.41 9.3 12.926 5.87 25.47 14.876 33.14 27.029 7.627 12.104 8.826 25.238 8.798 39.162-.014 9.977-.035 19.953-.053 29.93 0 .2.116 1.57-.099 1.57h-20.807c-1.372 0-6.216.941-6.216-.787 0-4.057-.007-8.11-.007-12.168-.007-8.452.07-16.912-.021-25.368-.067-6.67-1.52-12.968-5.147-18.623-5.627-8.784-15.847-14.481-24.754-19.142" style="fill:#000;fill-opacity:1;fill-rule:evenodd;stroke:none"/>
</svg>
