<?xml version="1.0" encoding="UTF-8" standalone="no"?>
<svg
   xmlns:dc="http://purl.org/dc/elements/1.1/"
   xmlns:cc="http://creativecommons.org/ns#"
   xmlns:rdf="http://www.w3.org/1999/02/22-rdf-syntax-ns#"
   xmlns:svg="http://www.w3.org/2000/svg"
   xmlns="http://www.w3.org/2000/svg"
   xmlns:sodipodi="http://sodipodi.sourceforge.net/DTD/sodipodi-0.dtd"
   xmlns:inkscape="http://www.inkscape.org/namespaces/inkscape"
   width="81.595718"
   height="81.595718"
   viewBox="0 0 230.28125 230.28124"
   version="1.1"
   id="svg2"
   inkscape:version="0.48.2 r9819"
   sodipodi:docname="MUTCD D9-6.svg">
  <metadata
     id="metadata62">
    <rdf:RDF>
      <cc:Work
         rdf:about="">
        <dc:format>image/svg+xml</dc:format>
        <dc:type
           rdf:resource="http://purl.org/dc/dcmitype/StillImage" />
        <dc:title></dc:title>
      </cc:Work>
    </rdf:RDF>
  </metadata>
  <defs
     id="defs60" />
  <sodipodi:namedview
     pagecolor="#ffffff"
     bordercolor="#666666"
     borderopacity="1"
     objecttolerance="10"
     gridtolerance="10"
     guidetolerance="10"
     inkscape:pageopacity="0"
     inkscape:pageshadow="2"
     inkscape:window-width="1280"
     inkscape:window-height="1004"
     id="namedview58"
     showgrid="false"
     fit-margin-top="0"
     fit-margin-left="0"
     fit-margin-right="0"
     fit-margin-bottom="0"
     inkscape:zoom="3.8704158"
     inkscape:cx="30.16135"
     inkscape:cy="19.412365"
     inkscape:window-x="-8"
     inkscape:window-y="-8"
     inkscape:window-maximized="1"
     inkscape:current-layer="svg2"
     showguides="true"
     inkscape:guide-bbox="true" />
  <polygon
     points="315,205 395,375 315,545 235,375 "
     id="polygon10"
     style="fill:none;stroke:#ffffff;stroke-width:40"
     transform="translate(-3032.9376,16738.813)" />
  <!-- draw the bicycle -->
  <!-- RIGHT -->
  <!-- LANE -->
  <!-- ONLY -->
  <path
     inkscape:connector-curvature="0"
     d="m 21.17474,0.84536805 187.92119,0 c 11.18659,0 20.34117,9.15450005 20.34117,20.33759995 l 0,187.924702 c 0,11.1866 -9.15458,20.33771 -20.34117,20.33771 l -187.92119,0 c -11.18658,0 -20.33764,-9.15111 -20.33764,-20.33772 l 0,-187.924692 C 0.8371,9.9998681 9.98816,0.84536805 21.17474,0.84536805"
     style="fill:#ffffff;fill-opacity:1;fill-rule:nonzero;stroke:#000000;stroke-width:1.69333334;stroke-miterlimit:4;stroke-opacity:1;stroke-dasharray:none"
     id="path3924" />
  <path
     inkscape:connector-curvature="0"
     d="m 21.17474,5.9249681 187.9212,0 c 8.39611,0 15.26469,6.8685999 15.26469,15.2575999 l 0,187.924802 c 0,8.39608 -6.86858,15.2611 -15.26469,15.2611 l -187.9212,0 c -8.38905,0 -15.25411,-6.86502 -15.25411,-15.2611 l 0,-187.924802 c 0,-8.389 6.86506,-15.2575999 15.25411,-15.2575999"
     style="fill:#155196;fill-opacity:1;fill-rule:evenodd;stroke:none"
     id="path3948" />
  <path
     d="m 115.1255,20.264712 c 52.60269,0 95.504,42.901306 95.504,95.500468 0,52.60976 -42.90131,95.50754 -95.504,95.50754 -52.599167,0 -95.504,-42.89778 -95.504,-95.50754 0,-52.599162 42.904833,-95.500468 95.504,-95.500468"
     style="fill:#ffffff;fill-opacity:1;fill-rule:evenodd;stroke:none"
     id="path3118"
     inkscape:connector-curvature="0" />
  <path
     d="m 102.65481,196.71322 c 0.007,4.54731 -1.66159,5.60917 -4.783671,5.62328 -3.118556,0.0175 -5.337528,-1.07597 -5.344583,-5.62328 -0.05292,-35.52119 0,-71.0565 0,-106.577694 -8.251473,-6.417028 -11.034889,-15.469306 -9.274528,-26.719389 1.778,-10.308167 3.556,-20.623389 5.337528,-30.935083 0.409222,-0.03881 0.818444,-0.07761 1.227666,-0.119945 0.04586,12.6365 0.08467,25.269472 0.130528,37.902445 l 2.116667,0 c 0.790222,-12.632973 1.580444,-25.265945 2.370666,-37.902445 l 1.192389,0 c 0.261056,12.682361 0.529167,25.354139 0.79375,38.032973 0.744361,-0.04939 1.495778,-0.08819 2.247195,-0.130528 0.613833,-12.632973 1.224139,-25.265945 1.845033,-37.902445 l 1.18533,0 c 0.4833,12.587111 0.96661,25.17775 1.45697,37.771917 l 2.77283,0 C 105.88625,57.538859 105.84039,44.94822 105.791,32.361109 l 1.31939,0 c 1.72156,10.343445 3.43958,20.690417 5.15408,31.033861 0.81492,12.375445 -1.60514,22.027445 -9.77194,26.807584 0.0564,35.503556 0.0882,71.014166 0.16228,106.510666"
     style="fill:#155196;fill-opacity:1;fill-rule:evenodd;stroke:none"
     id="path3122"
     inkscape:connector-curvature="0" />
  <path
     d="m 139.60475,32.33324 0,164.46148 c -0.73731,3.34786 -2.14136,4.36386 -5.30578,4.47322 -3.15736,0.1023 -5.2458,-0.90311 -5.39044,-4.45559 l 0,-82.08433 c 0.29986,-5.22464 -0.0318,-10.38578 -4.71664,-15.190613 -2.25425,-1.506362 -3.46781,-4.462639 -3.65478,-8.861778 0.13758,-16.185445 0.26811,-32.367361 0.40217,-48.549278 -0.0917,-11.013722 11.05958,-10.4775 18.66547,-9.793111"
     style="fill:#155196;fill-opacity:1;fill-rule:evenodd;stroke:none"
     id="path3126"
     inkscape:connector-curvature="0" />
</svg>
