<?xml version="1.0" encoding="UTF-8" standalone="no"?>
<svg xmlns="http://www.w3.org/2000/svg" width="357.65625" height="357.84375">
  <g fill-rule="evenodd">
    <path fill="#fff" stroke="#000" stroke-width="2.5" d="M178.76455 356.6153C76.44325 335.8068 1.25835 243.902 1.25835 138.9864c0-49.4246 17.0847-99.3819 47.432-137.5317 19.9503 6.0715 43.4419 9.667 65.1135 9.667 21.6816 0 45.0942-3.4624 65.0347-9.5387 19.9405 6.0763 43.3482 9.5387 65.0248 9.5387 21.6815 0 45.1682-3.5955 65.1087-9.667 30.3521 38.1498 47.4369 88.1071 47.4369 137.5317 0 104.9156-75.3329 196.8154-177.6444 217.6289"/>
    <path fill="#155196" d="M69.40127 288.2001c-8.2268-8.8778-16.3253-18.0367-22.9836-28.182-6.7175-10.2292-13.2082-20.7148-18.1353-31.9452-4.8927-11.1416-9.4943-22.5299-12.4191-34.3718-2.9346-11.8815-5.5634-23.9848-6.387-36.2312-.8188-12.2267-1.2035-24.4682-.025-36.6949 1.1936-12.3795 3.3242-24.4928 6.3871-36.5517.1529-.6067.1529-.4834.725-.4834h325.3509c.3058 0 1.3021 5.8939 1.4944 6.7323 2.5992 11.6891 4.5573 23.5705 5.1886 35.5457.6658 12.419.3452 24.7788-1.0308 37.1337-1.3465 12.1429-3.852 24.1131-7.2995 35.8268-3.4574 11.7532-7.9555 23.1266-13.3512 34.1154-5.5092 11.2303-12.0491 21.8196-19.3289 31.9649-7.265 10.1108-15.5707 19.3388-24.3893 28.0982-8.8136 8.7545-18.6433 16.3548-28.764 23.5064-9.9924 7.0479-20.8578 12.7297-31.8712 17.9676-11.0775 5.2626-22.8208 9.006-34.6283 12.2366-2.8951.794-5.8346 1.3957-8.7643 2.0616-1.1048.2515-2.5154-.3847-3.5955-.6264-1.5043-.3403-3.0431-.6214-4.5375-1.0308-6.0073-1.6473-11.9259-3.413-17.8592-5.3267-11.6743-3.773-22.737-9.3315-33.5481-15.0478-5.3661-2.836-10.4462-6.2638-15.5411-9.5486-5.0258-3.2404-10.0565-6.9592-14.6384-10.8161-6.9691-5.8544-13.5929-11.911-20.049-18.3326"/>
    <path fill="#bf2f37" d="M18.10307 76.3413c3.2996-11.3389 7.6201-22.5052 12.927-33.0599 5.5536-11.0578 11.8223-21.6963 19.1957-31.6444.5179-.6954.878-1.7755 1.7657-1.5338 2.2737.6263 4.5524 1.2083 6.8409 1.7607 4.3846 1.0506 8.7988 1.9729 13.2328 2.7817 8.858 1.6128 17.8098 2.7324 26.7961 3.344 17.8641 1.2231 35.7824.1677 53.4442-2.7127 8.7792-1.4253 17.4646-3.3883 26.0168-5.8248.9618-.2712 2.1307.3157 3.0875.5771 1.0308.286 2.0666.5622 3.1023.8384 2.2343.582 4.4685 1.1344 6.7225 1.6474 4.3353.9765 8.6903 1.8347 13.0651 2.5893 17.6175 3.053 35.59 4.0443 53.4295 2.9642 9.001-.5475 17.9479-1.7016 26.8306-3.2256 4.4043-.799 8.7988-1.6818 13.1539-2.7126 2.1307-.5031 4.2564-1.0358 6.3772-1.5931.3156-.084 2.0024-.7201 2.1701-.4932.2861.3797.5672.7644.8533 1.1492 3.7632 5.0751 7.2502 10.3228 10.5547 15.7087 6.3377 10.3081 11.5509 21.2425 16.0687 32.4581 2.2343 5.5585 4.1381 11.2502 5.8742 16.9813H18.10307"/>
    <path fill="#fff" d="M292.19795 68.919v-5.1935h-13.4893V51.5334h7.6496V46.473h-7.6496v-9.3364h12.0589V31.948h-17.3807v36.971h18.811zm-23.8714-32.0438V31.948h-18.811v4.9272h6.7471V68.919h5.3168V36.8752h6.7471zm-30.2288 16.7346h-5.3218l2.5943-10.6386 2.7275 10.6386zm9.2082 15.3092-9.2082-36.971h-5.1886l-9.2132 36.971h5.3168l2.4661-10.1207h7.916l2.5943 10.1207h5.3168zm-25.8146-32.0438V31.948h-18.8111v4.9272h6.7472V68.919h5.3168V36.8752h6.7471zm-22.1846 21.9231c0-5.3168-3.1122-9.3414-10.2489-13.4893-2.7275-1.5536-3.5018-2.5992-3.5018-4.4142 0-2.466 1.9432-4.281 4.4093-4.281 2.3378 0 4.1528 1.6867 4.2811 4.281h5.0603c-.1282-5.5733-4.1528-9.5979-9.3414-9.5979-5.3168 0-9.4647 4.2811-9.4647 9.5979 0 3.2453 1.5536 6.101 4.5375 8.1774 7.5264 5.0604 5.45 3.6301 6.2243 4.4093 2.2047 1.6868 2.984 3.2404 2.984 5.3168 0 2.9889-2.3329 5.5782-5.1886 5.5782-3.63 0-5.1886-3.2403-5.1886-6.3574h-5.1886c0 6.101 3.8915 11.5707 10.3772 11.5707 5.7064 0 10.2489-4.8236 10.2489-10.7915m-30.0957-16.991c0 2.9789-1.6868 4.6657-4.7989 4.6657h-5.4549v-9.3364h5.4549c2.8507 0 4.7989 1.815 4.7989 4.6707m5.1886 27.1117-5.3218-18.1649c3.5068-1.2972 5.3218-4.5425 5.3218-8.9468 0-5.9728-3.8914-9.8593-9.7261-9.8593h-11.0331v36.971h5.3168V51.5334h5.0652l4.9272 17.3856h5.45zm-26.9835 0v-5.1935h-13.4943V51.5334h7.6547V46.473h-7.6547v-9.3364h12.0639V31.948h-17.3807v36.971h18.8111zm-23.8714-32.0438V31.948h-18.811v4.9272h6.7421V68.919h5.3218V36.8752h6.7471zM99.67335 68.919V31.948h-5.3217v22.1846L84.23595 31.948h-5.3218v36.971h5.3218V44.1401l11.4128 24.7789h4.0246zm-28.8034-36.971h-5.1886v36.971h5.1886V31.948zm-5.5195 231.6109c.5178-17.1341 4.1528-31.1561 12.4634-45.1731 6.2292-11.4277 15.5755-20.774 25.9625-28.5618 2.5943-1.5585 4.6707-3.1171 6.7521-4.6756l7.7878-4.1529 7.265-4.1528 7.2699-4.1528c5.7163-3.635 9.8691-9.8642 9.8691-16.0984 0-10.9049-12.4634-19.7333-27.0032-19.7333-15.0577 0-24.4041 7.2748-26.9984 20.774l-23.3682-5.1935c5.1935-24.404 24.404-39.4617 50.3666-39.4617 28.0389 0 50.3666 19.7284 50.3666 44.1324 0 11.4277-5.1886 22.8504-15.0577 31.6789-2.0765 1.5585-4.1529 3.1121-6.2293 4.1528l-7.2699 4.6707-7.7878 4.1577-7.2699 4.1529c-14.022 8.3056-21.8097 17.1341-29.0797 33.7503h72.6943v23.8862H65.35045zm129.8119 0c.5178-17.1341 4.1528-31.1561 12.4634-45.1731 6.2292-11.4277 15.5755-20.774 25.9625-28.5618 2.5943-1.5585 4.6707-3.1171 6.7521-4.6756l7.7878-4.1529 7.2699-4.1528 7.265-4.1528c5.7163-3.635 9.8691-9.8642 9.8691-16.0984 0-10.9049-12.4634-19.7333-27.0032-19.7333-15.0577 0-24.4041 7.2748-26.9984 20.774l-23.3682-5.1935c5.1935-24.404 24.404-39.4617 50.3666-39.4617 28.0439 0 50.3666 19.7284 50.3666 44.1324 0 11.4277-5.1886 22.8504-15.0528 31.6789-2.0814 1.5585-4.1578 3.1121-6.2342 4.1528l-7.2699 4.6707-7.7878 4.1577-7.2699 4.1529c-14.022 8.3056-21.8097 17.1341-29.0797 33.7503h72.6943v23.8862h-100.7332z"/>
  </g>
</svg>