<svg xmlns="http://www.w3.org/2000/svg" width="89.985" height="90.001" viewBox="0 0 253.958 254.003">
    <path d="M3.362 118.76 118.716 3.404c4.54-4.537 11.942-4.537 16.482 0L250.553 118.76c4.54 4.537 4.54 11.938 0 16.478L135.198 250.597c-4.54 4.54-11.941 4.54-16.482 0L3.362 135.24c-4.48-4.48-4.484-11.994 0-16.478" style="fill:#fcd116;fill-opacity:1;fill-rule:nonzero;stroke:none"/>
    <path d="M5.676 121.021 120.978 5.723c3.27-3.27 8.69-3.263 11.96 0L248.236 121.02c3.274 3.274 3.26 8.682 0 11.96L132.938 248.278c-3.278 3.263-8.682 3.27-11.96 0L5.676 132.98c-3.256-3.277-3.27-8.685 0-11.959" style="fill:#000;fill-opacity:1;fill-rule:evenodd;stroke:none"/>
    <path d="M8.922 124.184 124.139 8.967c1.524-1.574 4.114-1.574 5.638 0L244.99 124.184c1.574 1.52 1.574 4.113 0 5.634L129.777 245.03c-1.524 1.577-4.117 1.58-5.638 0L8.922 129.818c-1.57-1.52-1.57-4.114 0-5.634" style="fill:#fcd116;fill-opacity:1;fill-rule:evenodd;stroke:none"/>
    <path style="fill:#000;fill-opacity:1;fill-rule:evenodd;stroke:none" d="M125.5 100.277v2.47h1.5v8.643h-1.764v2.645h9.437v1.94h-12.17v-13.493h-10.408v2.822l-3.616.177c-1.556.063-3.238-.011-4.498 1.058-1.256 1.072-1.57 2.692-1.764 4.233l-.882 7.056-.529-5.997c-.102-1.119-.547-2.41-1.499-3.087-.385-.268-.8-.445-1.235-.618.342-.109.695-.307.97-.529.395-.307.699-.603.882-1.058.152-.356.141-.77.177-1.147l2.028 1.5.265-.53-1.852-1.499a7.613 7.613 0 0 0-.618-1.235c-.462-.783-1.129-1.47-1.852-2.028a4.76 4.76 0 0 0-1.852-.882c-.398-.085-.815-.183-1.235-.176v.088l-.264 2.028H91.722v.353c.226.039.473.053.706.088.194.018.338.067.529.089.427.063.892.102 1.323.176-.236.526-.445 1.111-.53 1.676-.109.751.092 1.555.618 2.116.42.441.963.776 1.5 1.059-.36.19-.756.356-1.059.617a5.745 5.745 0 0 0-.97 1.058c-.24.35-.378.755-.53 1.147-.158.515-.324.977-.44 1.5-.24 1.047-.395 2.123-.618 3.174l-.44 2.381h-5.469l-1.323-6.173.441-10.495h-1.94l-1.235 9.613-28.927 3.704c-.49.06-.939.11-1.411.176-.477.06-.953.141-1.323.441-.498.395-.914 1.041-.97 1.676l-1.5 16.316a2.329 2.329 0 0 1-.794 1.587c-.469.392-1.068.456-1.675.441l-4.145-.088v4.763h14.287c-.413 1.926-.751 3.8-.264 5.732.677 2.64 2.303 4.96 4.586 6.439 1.57 1.026 3.56 1.27 5.38 1.499 2.088-.17 3.936-.41 5.732-1.5 2.392-1.432 4.12-3.774 4.85-6.438.512-1.862.114-3.887-.264-5.732h79.64c-.536 1.93-1.03 3.827-.618 5.82.565 2.713 2.294 5.06 4.587 6.615 1.58 1.073 3.534 1.362 5.38 1.588 2.123-.19 4.007-.434 5.82-1.588 2.364-1.51 3.98-3.986 4.586-6.703.427-1.908-.031-3.89-.529-5.732h38.277v-4.763h-3.97l-4.585-19.314h-11.113v-1.94h11.113v-2.646l-2.734.088-.088-8.82h2.822v-2.38H125.5zm3.088 2.47h6.085v8.643h-6.085v-8.643zm7.937 0h5.997v8.643h-5.997v-8.643zm8.202 0h5.997v8.643h-5.997v-8.643zm8.202 0h5.997v8.643h-5.997v-8.643zm8.114 0h5.997v8.643h-5.997v-8.643zm8.114 0h5.997v8.643h-5.997v-8.643zm8.026 0h5.997v8.643h-5.997v-8.643zm8.114 0h5.997v8.643h-5.997v-8.643zm8.202 0h5.997v8.643h-5.997v-8.643zm-56.974 11.288h55.122v1.94h-55.122v-1.94z"/>
</svg>
