<svg xmlns="http://www.w3.org/2000/svg" width="105.7" height="52.826" viewBox="0 0 298.308 149.087">
    <path d="m286.657 149.084-275.001.003C5.232 149.087 0 143.859 0 137.438V11.652C-.004 5.235 5.232 0 11.656 0l275 .004c6.421 0 11.65 5.228 11.65 11.649l.002 125.78c-.003 6.346-5.309 11.658-11.652 11.651" style="fill:#fcd116;fill-opacity:1;fill-rule:nonzero;stroke:none"/>
    <path d="m286.614 145.856-274.923-.004c-4.621-.003-8.445-3.834-8.456-8.456l.004-125.701c-.004-4.622 3.835-8.442 8.456-8.457l274.916.004c4.629.007 8.456 3.825 8.46 8.457V137.4c-.011 4.615-3.824 8.456-8.456 8.456" style="fill:#000;fill-opacity:1;fill-rule:evenodd;stroke:none"/>
    <path d="m286.554 141.326-274.803-.004c-2.187.043-4.022-1.795-3.986-3.986l.004-125.581c-.04-2.184 1.795-4.026 3.983-3.983l274.8.004c2.194-.046 4.028 1.795 3.982 3.983l.008 125.581c.04 2.188-1.795 4.022-3.986 3.987" style="fill:#fcd116;fill-opacity:1;fill-rule:evenodd;stroke:none"/>
    <path d="M270.383 95.338H111.912l7.757 24.511c.25.787.427 1.588.441 2.42.088 3.877-2.931 7.394-6.685 8.121a8.333 8.333 0 0 1-6.346-1.302l-79.15-54.465 79.061-54.367c1.408-.97 3.027-1.545 4.738-1.555 3.877-.04 7.394 2.818 8.125 6.621.257 1.376.243 2.752-.184 4.078l-7.757 24.508h158.471v41.43z" style="fill:#000;fill-opacity:1;fill-rule:evenodd;stroke:none"/>
</svg>
