<svg xmlns="http://www.w3.org/2000/svg" width="90.003" height="90" viewBox="0 0 254.008 254">
    <path d="M250.619 118.775 135.229 3.392c-4.53-4.523-11.928-4.523-16.454 0L3.392 118.775c-4.523 4.523-4.523 11.924 0 16.454l115.383 115.379c4.526 4.523 11.924 4.523 16.454 0l115.39-115.38c4.519-4.53 4.519-11.93 0-16.453" style="fill:#fcd116;fill-opacity:1;fill-rule:nonzero;stroke:none"/>
    <path d="M248.42 120.97 133.03 5.592c-3.315-3.316-8.745-3.316-12.057 0L5.59 120.971c-3.316 3.316-3.316 8.742 0 12.058l115.383 115.383c3.312 3.316 8.742 3.316 12.058 0l115.39-115.383c3.312-3.316 3.312-8.742 0-12.058" style="fill:#000;fill-opacity:1;fill-rule:evenodd;stroke:none"/>
    <path d="M245.119 124.266 129.736 8.883c-1.503-1.5-3.962-1.5-5.472 0L8.888 124.266a3.875 3.875 0 0 0 0 5.465l115.376 115.38a3.877 3.877 0 0 0 5.472 0l115.383-115.38a3.862 3.862 0 0 0 0-5.465" style="fill:#fcd116;fill-opacity:1;fill-rule:evenodd;stroke:none"/>
    <path d="M91.336 94.246v4.381c0 11.695 5.486 23.241 14.841 30.329l36.527 27.661c2.935 2.223 4.685 5.62 4.685 9.296v26.765h26.913v-26.765c0-7.017-1.901-14.016-5.595-19.989-2.275-3.697-5.133-7.179-8.608-9.814l-37.158-28.187c-1.764-1.34-3.217-3.108-4.01-5.19a11.925 11.925 0 0 1-.784-4.215V93.83l17.819 5.129c.282.074.564.106.84.145 1.259.169 2.472-.17 3.52-.89a5.231 5.231 0 0 0 2.163-3.315c.275-1.475.01-2.858-.854-4.064l-36.834-51.781-33.535 51.9a5.372 5.372 0 0 0-.853 2.876c0 2.529 1.887 4.73 4.332 5.245.896.19 1.757.053 2.603-.225l13.988-4.604z" style="fill:#000;fill-opacity:1;fill-rule:evenodd;stroke:none"/>
</svg>
