<?xml version="1.0" encoding="utf-8"?>
<!-- Generator: Adobe Illustrator 27.9.0, SVG Export Plug-In . SVG Version: 6.00 Build 0)  -->
<svg version="1.1" xmlns="http://www.w3.org/2000/svg" xmlns:xlink="http://www.w3.org/1999/xlink" x="0px" y="0px"
	 viewBox="0 0 173.3 173.3" style="enable-background:new 0 0 173.3 173.3;" xml:space="preserve">
<style type="text/css">
	.st0{fill:#FFFFFF;}
	.st1{fill:#BF311A;}
</style>
<g id="Layer_1">
</g>
<g id="For_Sheets">
	<g>
		<g>
			<path class="st0" d="M11.1,173.2c-6,0-10.9-4.9-10.9-10.9V11.1C0.1,5,5,0.1,11.1,0.1h151.2c6,0,10.9,4.9,10.9,10.9v151.2
				c0,6-4.9,10.9-10.9,10.9H11.1z"/>
			<path d="M162.2,0.2c5.9,0,10.8,4.9,10.8,10.8v151.2c0,5.9-4.9,10.8-10.8,10.8H11c-5.9,0-10.8-4.9-10.8-10.8V11.1
				C0.2,5.1,5.1,0.2,11,0.2H162.2 M162.2,0H11C5,0,0,5,0,11.1v151.2c0,6.1,5,11.1,11,11.1h151.2c6.1,0,11-5,11-11.1V11.1
				C173.3,5,168.3,0,162.2,0L162.2,0z"/>
		</g>
		<path class="st1" d="M11,170.4c-4.5,0-8.1-3.6-8.1-8.1V11.1C2.9,6.6,6.6,3,11,3h151.2c4.5,0,8.1,3.6,8.1,8.1v151.2
			c0,4.5-3.6,8.1-8.1,8.1H11z M162.2,165.9c2,0,3.6-1.6,3.6-3.6V11.1c0-2-1.6-3.6-3.6-3.6H11c-2,0-3.6,1.6-3.6,3.6v151.2
			c0,2,1.6,3.6,3.6,3.6H162.2z"/>
		<g>
			<path d="M76.6,97.5v32.3H59.6V43.4h43.6c13.4,0,26.4,11.2,26.4,26.9c0,14.8-11,27.2-27.6,27.2H76.6z M76.6,60.7v19.6h25.3
				c6.6,0,10.9-3.9,10.9-10c0-5.4-4.5-9.7-10.9-9.7H76.6z"/>
		</g>
		<path class="st1" d="M86.6,11.1C44.9,11.1,11,44.9,11,86.7s33.8,75.6,75.6,75.6s75.6-33.8,75.6-75.6S128.4,11.1,86.6,11.1z
			 M147.8,86.7c0,14.3-4.9,27.5-13.1,37.9l-86-86c10.4-8.2,23.6-13.1,37.9-13.1C120.4,25.5,147.8,52.9,147.8,86.7z M25.4,86.7
			c0-14.3,4.9-27.5,13.1-37.9l86,86c-10.4,8.2-23.6,13.1-37.9,13.1C52.9,147.9,25.4,120.4,25.4,86.7z"/>
	</g>
</g>
</svg>
