<?xml version="1.0" encoding="utf-8"?>
<!-- Generator: Adobe Illustrator 27.7.0, SVG Export Plug-In . SVG Version: 6.00 Build 0)  -->
<svg version="1.1" id="For_Sheets" xmlns="http://www.w3.org/2000/svg" xmlns:xlink="http://www.w3.org/1999/xlink" x="0px" y="0px"
	 viewBox="0 0 216.5 216.5" style="enable-background:new 0 0 216.5 216.5;" xml:space="preserve">
<style type="text/css">
	.st0{fill:#FFFFFF;}
</style>
<g>
	<g>
		<path class="st0" d="M13.7,216.4c-7.5,0-13.6-6.1-13.6-13.6v-189c0-7.5,6.1-13.6,13.6-13.6h189c7.5,0,13.6,6.1,13.6,13.6v189
			c0,7.5-6.1,13.6-13.6,13.6H13.7z"/>
		<path d="M202.8,0.2c7.4,0,13.5,6.1,13.5,13.5v189c0,7.4-6.1,13.5-13.5,13.5h-189c-7.4,0-13.5-6.1-13.5-13.5v-189
			c0-7.4,6.1-13.5,13.5-13.5H202.8 M202.8,0h-189C6.2,0,0,6.2,0,13.8v189c0,7.6,6.2,13.8,13.8,13.8h189c7.6,0,13.8-6.2,13.8-13.8
			v-189C216.5,6.2,210.3,0,202.8,0L202.8,0z"/>
	</g>
	<path d="M13.7,212.7c-5.5,0-9.9-4.4-9.9-9.9v-189c0-5.5,4.4-9.9,9.9-9.9h189c5.5,0,9.9,4.4,9.9,9.9v189c0,5.5-4.4,9.9-9.9,9.9H13.7
		z M202.8,207.3c2.5,0,4.5-2,4.5-4.5v-189c0-2.5-2-4.5-4.5-4.5h-189c-2.5,0-4.5,2-4.5,4.5v189c0,2.5,2,4.5,4.5,4.5H202.8z"/>
	<g>
		<path d="M25.5,47.9h-3.9v13.5h-4.1V32.7H26c4.5,0,7.6,3,7.6,7.7c0,3.4-1.4,6-4.1,7l4.1,14.1h-4.2L25.5,47.9z M21.6,36.7V44h4.2
			c2.4,0,3.7-1.3,3.7-3.6c0-2.2-1.5-3.6-3.7-3.6H21.6z"/>
		<path d="M38.5,32.7h4v28.8h-4V32.7z"/>
		<path d="M57.2,62c-2.6,0-8.9-0.5-8.9-14.9s6-15,8.6-15c4.2,0,7.3,3,7.5,7.3h-4.2c-0.1-1.9-1.4-3.2-3.4-3.2
			c-1.4,0-4.6,0.4-4.6,10.9s3.5,10.8,4.9,10.8c2.1,0,3.1-1.4,3.1-4.4v-1.9H57v-4h7.4v6C64.4,60.7,59.6,62,57.2,62z"/>
		<path d="M82.1,48.4h-7.9v13h-4.1V32.7h4.1v11.7h7.9V32.7h4.1v28.8h-4.1V48.4z"/>
		<path d="M99.7,61.5h-4.2v-25h-5.3v-3.8H105v3.8h-5.3V61.5z"/>
	</g>
	<g>
		<path d="M123,32.6h4.2v25h10.5v3.8H123V32.6z"/>
		<path d="M151.7,53.6h-6.2l-1.9,7.9h-4.2l7.2-28.8h4.1l7.2,28.8h-4.2L151.7,53.6z M146.5,49.5h4.2l-2.1-8.3L146.5,49.5z"/>
		<path d="M166,42.2v19.3h-4.1V32.6h4.1l7.9,17.3V32.6h4.1v28.8h-3.1L166,42.2z"/>
		<path d="M184.4,32.6H198v4h-9.4V44h6v3.9h-6v9.5h10.5v4h-14.7V32.6z"/>
	</g>
	<g>
		<path d="M77,106l-6.7,20.2L63.6,106v20.2h-5.2v-36h5.2l6.7,20.2L77,90.3h5.2v36H77V106z"/>
		<path d="M90.1,115.8V90.3h5.2v25.9c0,3.4,2,5.7,5,5.7c2.8,0,4.8-2.3,4.8-5.7V90.3h5.2v25.6c0,8.2-6.3,11-10,11
			C96.9,126.9,90.1,124.7,90.1,115.8z"/>
		<path d="M126.7,103.4c3.9,2.5,9.8,5.9,9.8,13c0,5.8-4.4,10.5-10,10.5c-6.3,0-10.1-5.4-10.1-11.2h5.1c0,3.1,1.5,6.2,5.1,6.2
			c2.8,0,5.1-2.5,5.1-5.4c0-7.8-13.4-7.4-13.4-17.4c0-5.2,4.1-9.3,9.3-9.3c5.1,0,9,3.9,9.1,9.3h-4.9c-0.1-2.5-1.9-4.2-4.2-4.2
			c-2.4,0-4.3,1.8-4.3,4.2C123.1,101.3,124.3,101.9,126.7,103.4z"/>
		<path d="M151.5,126.3h-5.2V95.1h-6.6v-4.8h18.4v4.8h-6.6V126.3z"/>
	</g>
	<g>
		<path d="M25.7,183.8h-4.2v-25h-5.3v-3.8H31v3.8h-5.3V183.8z"/>
		<path d="M35,175.5v-20.4h4.1v20.7c0,2.7,1.6,4.6,4,4.6c2.2,0,3.8-1.8,3.8-4.6v-20.7h4.1v20.5c0,6.6-5.1,8.8-8,8.8
			C40.5,184.4,35,182.6,35,175.5z"/>
		<path d="M65.5,170.3h-3.9v13.5h-4.1v-28.8H66c4.5,0,7.6,3,7.6,7.7c0,3.4-1.4,6-4.1,7l4.1,14.1h-4.2L65.5,170.3z M61.6,159.1v7.3
			h4.2c2.4,0,3.7-1.3,3.7-3.6c0-2.2-1.5-3.6-3.7-3.6H61.6z"/>
		<path d="M82.6,164.6v19.3h-4.1v-28.8h4.1l7.9,17.3v-17.3h4.1v28.8h-3.1L82.6,164.6z"/>
	</g>
	<g>
		<path d="M120.7,170.3h-3.9v13.5h-4.1v-28.8h8.6c4.5,0,7.6,3,7.6,7.7c0,3.4-1.4,6-4.1,7l4.1,14.1h-4.2L120.7,170.3z M116.8,159.1
			v7.3h4.2c2.4,0,3.7-1.3,3.7-3.6c0-2.2-1.5-3.6-3.7-3.6H116.8z"/>
		<path d="M133.7,155.1h4v28.8h-4V155.1z"/>
		<path d="M152.4,184.4c-2.6,0-8.9-0.5-8.9-14.9s6-15,8.6-15c4.2,0,7.3,3,7.5,7.3h-4.2c-0.1-1.9-1.4-3.2-3.4-3.2
			c-1.4,0-4.6,0.4-4.6,10.9c0,10.5,3.5,10.8,4.9,10.8c2.1,0,3.1-1.4,3.1-4.4v-1.9h-3.2v-4h7.4v6
			C159.6,183.1,154.9,184.4,152.4,184.4z"/>
		<path d="M177.4,170.8h-7.9v13h-4.1v-28.8h4.1v11.7h7.9v-11.7h4.1v28.8h-4.1V170.8z"/>
		<path d="M195,183.8h-4.2v-25h-5.3v-3.8h14.7v3.8H195V183.8z"/>
	</g>
</g>
</svg>
