<?xml version="1.0" encoding="UTF-8" standalone="no"?>
<svg
   xmlns:dc="http://purl.org/dc/elements/1.1/"
   xmlns:cc="http://creativecommons.org/ns#"
   xmlns:rdf="http://www.w3.org/1999/02/22-rdf-syntax-ns#"
   xmlns:svg="http://www.w3.org/2000/svg"
   xmlns="http://www.w3.org/2000/svg"
   xmlns:sodipodi="http://sodipodi.sourceforge.net/DTD/sodipodi-0.dtd"
   xmlns:inkscape="http://www.inkscape.org/namespaces/inkscape"
   width="81.595718"
   height="81.595718"
   viewBox="0 0 230.28125 230.28124"
   version="1.1"
   id="svg2"
   inkscape:version="0.48.2 r9819"
   sodipodi:docname="AJAX1.svg">
  <metadata
     id="metadata62">
    <rdf:RDF>
      <cc:Work
         rdf:about="">
        <dc:format>image/svg+xml</dc:format>
        <dc:type
           rdf:resource="http://purl.org/dc/dcmitype/StillImage" />
        <dc:title />
      </cc:Work>
    </rdf:RDF>
  </metadata>
  <defs
     id="defs60">
    <clipPath
       clipPathUnits="userSpaceOnUse"
       id="clipPath3564">
      <path
         inkscape:connector-curvature="0"
         d="m 63,43 512.622,0 0,313.129 L 63,356.129 63,43 z"
         id="path3566" />
    </clipPath>
  </defs>
  <sodipodi:namedview
     pagecolor="#ffffff"
     bordercolor="#666666"
     borderopacity="1"
     objecttolerance="10"
     gridtolerance="10"
     guidetolerance="10"
     inkscape:pageopacity="0"
     inkscape:pageshadow="2"
     inkscape:window-width="1280"
     inkscape:window-height="1004"
     id="namedview58"
     showgrid="false"
     fit-margin-top="0"
     fit-margin-left="0"
     fit-margin-right="0"
     fit-margin-bottom="0"
     inkscape:zoom="3.8704159"
     inkscape:cx="82.893678"
     inkscape:cy="21.245461"
     inkscape:window-x="-8"
     inkscape:window-y="-8"
     inkscape:window-maximized="1"
     inkscape:current-layer="svg2"
     showguides="true"
     inkscape:guide-bbox="true" />
  <polygon
     points="315,205 395,375 315,545 235,375 "
     id="polygon10"
     style="fill:none;stroke:#ffffff;stroke-width:40"
     transform="translate(28002.865,4907.8663)" />
  <!-- draw the bicycle -->
  <!-- RIGHT -->
  <!-- LANE -->
  <!-- ONLY -->
  <path
     inkscape:connector-curvature="0"
     d="m 21.10525,0.8444427 188.087,0 c 11.14072,0 20.2565,9.1157 20.2565,20.2565003 l 0,188.086997 c 0,11.1442 -9.11578,20.26 -20.2565,20.26 l -188.087,0 c -11.14072,0 -20.2565,-9.1158 -20.2565,-20.26 l 0,-188.086997 c 0,-11.1408003 9.11578,-20.2565003 20.2565,-20.2565003"
     style="fill:#ffffff;fill-opacity:1;fill-rule:nonzero;stroke:#000000;stroke-width:1.69333339;stroke-miterlimit:4;stroke-opacity:1;stroke-dasharray:none"
     id="path3070" />
  <path
     inkscape:connector-curvature="0"
     d="m 21.10525,6.6331427 188.087,0 c 7.95867,0 14.46742,6.5088003 14.46742,14.4674003 l 0,188.086997 c 0,7.9622 -6.50875,14.471 -14.46742,14.471 l -188.087,0 c -7.95866,0 -14.47094,-6.5088 -14.47094,-14.471 l 0,-188.086997 c 0,-7.9586 6.51228,-14.4674003 14.47094,-14.4674003"
     style="fill:#155196;fill-opacity:1;fill-rule:evenodd;stroke:none"
     id="path3078" />
  <path
     inkscape:connector-curvature="0"
     d="m 48.99059,186.04574 35.16489,0 0,-147.305897 0.0423,-0.01 c 0,-3.295 2.74108,-5.9443 6.0325,-5.9443 0.0245,0 0.0178,-0.042 0.0282,-0.042 l 52.92725,-0.035 c 3.27378,0 5.98664,2.7657 6.02191,6.0325 l 0,10.2023 14.3122,11.7404 c 2.65289,1.9968 4.38855,5.1753 4.56142,8.4808 -0.0141,20.6516 0,39.214797 0,55.509597 0,18.609 11.04194,32.6708 11.04194,46.803 0,7.105 -5.83142,12.9011 -12.89403,12.9011 -5.95136,0 -11.50761,-4.6884 -13.10922,-10.5233 -2.51178,-9.1864 -1.15358,-57.5452 -1.25942,-68.2308 l -2.68816,0 0,80.4192 32.17686,0 0,11.6064 -132.3587,0 0,-11.6064 z"
     style="fill:#ffffff;fill-opacity:1;fill-rule:evenodd;stroke:none"
     id="path3082" />
  <path
     inkscape:connector-curvature="0"
     d="m 158.66567,101.56954 c 0,-2.702297 -2.20134,-4.903597 -4.8507,-4.910697 l -4.77308,-0.1834 0,-38.4916 2.794,2.159 0,15.3423 9.40505,-0.014 c 0.14112,17.4554 0.2787,34.903797 0.41981,52.352197 0.0282,17.3778 9.99772,32.7378 10.29758,42.739 0.0988,3.3232 -2.71639,6.036 -6.03955,6.036 -1.70039,0 -3.97581,-0.8678 -5.40809,-3.2455 -4.04636,-6.724 -1.78152,-63.0661 -1.84502,-71.7832"
     style="fill:#155196;fill-opacity:1;fill-rule:evenodd;stroke:none"
     id="path3086" />
  <path
     inkscape:connector-curvature="0"
     d="m 96.82373,41.057543 39.53933,0 c 2.12725,0 3.86644,1.7428 3.86644,3.87 l 0,30.1943 c 0,2.1272 -1.73919,3.8699 -3.86644,3.8699 l -39.53933,0 c -2.12725,0 -3.86998,-1.7427 -3.86998,-3.8699 l 0,-30.1943 c 0,-2.1272 1.74273,-3.87 3.86998,-3.87"
     style="fill:#155196;fill-opacity:1;fill-rule:evenodd;stroke:none"
     id="path3090" />
</svg>
